<?xml version="1.0" encoding="UTF-8"?>
<svg id="Calque_2" data-name="Calque 2" xmlns="http://www.w3.org/2000/svg" viewBox="0 0 80.03 80.02">
  <g id="Layer_1" data-name="Layer 1">
    <g>
      <path d="M68.49,0c3.68,3.5,7.34,2.7,11.29.22-2.44,3.87-3.24,7.65.21,11.4-.17.06-.35.11-.52.17-.56-.32-1.13-.63-1.69-.96-2.87-1.65-3.31-1.7-5.75.48-5.52,4.95-11.09,9.85-16.42,15.01C37.97,43.38,20.44,60.55,2.87,77.67c-.75.73-1.52,1.44-2.61,1.89.29-.39.55-.82.89-1.17,10.69-10.9,21.49-21.7,32.06-32.72,11.85-12.35,23.53-24.87,35.21-37.39,2.62-2.81,2.48-3.12.46-6.51-.24-.41-.43-.85-.64-1.27.08-.17.16-.33.25-.5Z"/>
      <path d="M68.47,20.54c3.67,3.44,7.33,2.72,11.3.21-2.43,3.88-3.28,7.65.24,11.35-.15.08-.3.16-.45.24-.93-.51-1.86-1-2.78-1.52-1.45-.82-2.76-.84-4.09.35-4.63,4.15-9.43,8.11-13.92,12.4-12.03,11.47-23.94,23.08-35.9,34.63-.64.62-1.29,1.22-1.94,1.82-.12-.12-.25-.25-.37-.37.42-.48.82-.97,1.26-1.43,10.2-10.49,20.48-20.92,30.59-31.5,5.46-5.72,10.67-11.67,15.89-17.6,2.74-3.11,2.65-3.4.48-7.02-.21-.35-.37-.73-.56-1.1.08-.15.16-.31.25-.46Z"/>
      <path d="M0,59.06c3.56-3.65,7.15-7.27,10.66-10.96,11.75-12.37,23.48-24.77,35.21-37.17.85-.9,1.62-1.89,2.4-2.87,2-2.52,2.03-3,.39-5.82-.33-.57-.64-1.15-.95-1.7,1.98.65,3.86,1.76,5.74,1.75,1.87-.01,3.72-1.15,5.97-1.93-2.57,3.74-3.42,7.52.07,11.25-.17.08-.34.16-.51.24-.66-.39-1.3-.79-1.97-1.17-2.62-1.48-3.09-1.57-5.33.41-6.34,5.62-12.7,11.23-18.84,17.07-10.33,9.83-20.5,19.83-30.74,29.75-.56.54-1.14,1.06-1.71,1.59-.13-.15-.26-.29-.39-.44Z"/>
      <path d="M41.13,79.51c3.04-3.18,6.14-6.31,9.12-9.55,5.66-6.14,11.27-12.33,16.88-18.51.67-.74,1.19-1.6,1.86-2.34,1.61-1.77,1.78-3.58.35-5.55-.45-.62-.78-1.33-1.18-2.01,2.03.68,3.91,1.81,5.79,1.8,1.86,0,3.71-1.16,6.07-1.99-2.72,3.8-3.5,7.56-.03,11.28-.16.07-.32.13-.48.2-.66-.37-1.36-.68-1.98-1.1-1.96-1.34-3.77-1.3-5.59.31-4.8,4.26-9.72,8.38-14.45,12.72-4.87,4.46-9.57,9.11-14.36,13.67-.53.5-1.08.97-1.62,1.46-.13-.13-.27-.26-.4-.39Z"/>
      <path d="M.19,38.43c1.57-1.6,3.19-3.16,4.71-4.81,7.15-7.8,14.27-15.63,21.4-23.45.17-.18.33-.38.48-.57q3.19-3.97.66-8.49c-.11-.2-.15-.43-.16-.93C31.08,3.41,34.83,2.78,38.65,0c-.78,2.27-1.91,4.16-1.94,6.07-.03,1.85,1.08,3.71,1.74,5.72-.55-.32-1.21-.65-1.83-1.05-2-1.31-3.85-1.4-5.75.31-5.97,5.37-12.04,10.63-17.97,16.04-3.95,3.6-7.73,7.39-11.6,11.09-.24.23-.55.37-.83.56l-.27-.3Z"/>
      <path d="M79.45,73.35c-.34-.18-.73-.33-1.04-.57-2.8-2.18-5.51-1.84-8.14.28-2.74,2.21-5.47,4.44-8.49,6.45.47-.57.95-1.15,1.42-1.72,1.81-2.21,3.65-4.4,5.44-6.63,2.04-2.53,2.28-5.15.27-7.84-.27-.37-.43-.82-.57-1.55,3.79,3.22,7.51,2.56,11.33-.19-.76,2.25-1.89,4.12-1.91,6.01-.02,1.88,1.07,3.78,1.7,5.76Z"/>
      <path d="M6.65.46c3.89,2.93,7.6,2.34,11.57-.25-2.44,3.88-3.36,7.65.24,11.33-.16.1-.31.2-.47.3-.54-.3-1.11-.55-1.6-.9-2.31-1.65-4.63-1.72-6.88.01-2.51,1.94-4.95,3.96-7.41,5.95-.51.41-.99.86-1.8,1.02.3-.4.59-.82.9-1.21,2.04-2.51,4.12-4.98,6.11-7.52,1.82-2.33,1.94-4.75.15-7.2-.34-.47-.56-1.02-.83-1.54Z"/>
    </g>
  </g>
</svg>